<svg xmlns="http://www.w3.org/2000/svg" viewBox="0 0 32 32">
  <path d="M7.1621094 4L6 10.511719L6 13C6 15.448126 7.3441616 17.505949 9.2578125 18.757812C5.599367 20.24608 3 23.815262 3 28L5 28C5 25.634997 6.0224183 23.520925 7.6445312 22.058594L13 27.414062L16.337891 24.076172C16.140891 23.481172 16 22.809109 16 22.037109C16 21.876109 16.012484 21.7205 16.021484 21.5625L13 24.585938L9.3300781 20.917969L9.0976562 21.013672C10.251442 20.369746 11.580217 20 13 20C16.854334 20 20 16.854334 20 13L20 10.511719L18.837891 4L7.1621094 4 z M 8.8378906 6L17.162109 6L18 10.689453L18 12L8 12L8 10.689453L8.8378906 6 z M 12 7L12 8L11 8L11 10L12 10L12 11L14 11L14 10L15 10L15 8L14 8L14 7L12 7 z M 8.2011719 14L17.798828 14C17.325376 16.271869 15.418215 18 13 18C10.581785 18 8.6746241 16.271869 8.2011719 14 z M 23.373047 17C21.81778 17 20.452152 17.48432 19.486328 18.392578C18.520504 19.300837 18 20.607195 18 22.037109C18 23.147013 18.431083 24.023895 18.835938 24.732422C19.240313 25.440114 19.614556 26.021788 19.8125 26.722656C19.8125 26.722656 19.814453 26.724609 19.814453 26.724609C20.042409 27.561146 20.095537 28.648569 20.25 29.628906C20.32744 30.120413 20.416612 30.594559 20.689453 31.068359C20.962248 31.542113 21.599315 32 22.251953 32C22.553499 32 22.904698 31.93766 23.212891 31.720703C23.521083 31.50375 23.702356 31.167667 23.779297 30.904297C23.933179 30.377556 23.876953 30.009747 23.876953 29.601562C23.876953 29.196174 24.044816 28.053498 24.355469 27.181641C24.510795 26.745712 24.707363 26.367295 24.865234 26.166016C24.933053 26.079547 24.966383 26.050006 24.990234 26.029297C25.007642 26.04759 25.027025 26.065684 25.082031 26.140625C25.222737 26.332332 25.399777 26.70926 25.535156 27.144531C25.805915 28.015075 25.9375 29.146353 25.9375 29.601562C25.9375 30.025216 25.88858 30.414071 26.064453 30.941406C26.152383 31.205074 26.343994 31.524681 26.648438 31.730469C26.952877 31.936257 27.300018 32 27.601562 32C28.257714 32 28.880001 31.557372 29.167969 31.09375C29.455937 30.630128 29.569945 30.153462 29.667969 29.658203C29.864016 28.667685 29.951259 27.56234 30.185547 26.720703C30.383569 26.020745 30.759754 25.439535 31.164062 24.732422C31.568552 24.024997 31.996734 23.148701 31.998047 22.041016C32.025948 19.159802 29.731666 17 26.841797 17C26.087657 17 25.562995 17.180651 25.115234 17.335938C24.529773 17.14555 23.924376 17 23.373047 17 z M 23.373047 19C23.809387 19 24.460982 19.119472 24.724609 19.240234L25.111328 19.417969L25.507812 19.261719C25.842228 19.130159 26.256399 19 26.841797 19C28.83908 19 30.021484 20.120817 30 22.027344L30 22.033203L30 22.037109C30 22.650012 29.788378 23.107538 29.427734 23.738281C29.067091 24.369024 28.555057 25.133448 28.259766 26.181641L28.259766 26.183594L28.257812 26.185547C27.997843 27.119477 27.917427 27.995879 27.800781 28.75C27.74 28.064504 27.698164 27.363751 27.445312 26.550781C27.269942 25.986928 27.049046 25.438981 26.695312 24.957031C26.34158 24.475082 25.750022 24 24.996094 24C24.242166 24 23.661519 24.459264 23.291016 24.931641C22.920512 25.404017 22.67333 25.948522 22.472656 26.511719C22.21768 27.227316 22.184897 27.831734 22.09375 28.474609C22.0161 27.764521 21.973299 27.032628 21.742188 26.189453L21.740234 26.185547L21.740234 26.181641C21.445037 25.133606 20.932662 24.369005 20.572266 23.738281C20.211869 23.107558 20 22.650205 20 22.037109C20 21.071024 20.313246 20.361351 20.857422 19.849609C21.401598 19.337868 22.222313 19 23.373047 19 z" fill="#FFFFFF" />
</svg>